<?xml version="1.0" standalone="no"?>
<!DOCTYPE svg PUBLIC "-//W3C//DTD SVG 20010904//EN"
 "http://www.w3.org/TR/2001/REC-SVG-20010904/DTD/svg10.dtd">
<svg version="1.0" xmlns="http://www.w3.org/2000/svg"
 width="800px" height="446px" viewBox="0 0 800 446" 
 preserveAspectRatio="xMidYMid meet">

<g transform="translate(0.000000,927.000000) scale(0.100000,-0.100000)"
fill="#000000" stroke="none">
<path d="M0 4635 l0 -4635 10735 0 10735 0 0 4635 0 4635 -10735 0 -10735 0 0
-4635z m11849 737 l-2 -47 -7 40 c-4 22 -8 34 -9 26 0 -8 -3 -12 -6 -10 -2 3
-2 15 2 27 9 37 23 14 22 -36z m1671 -1997 c68 -35 80 -144 21 -197 -39 -35
-88 -44 -142 -27 -57 19 -83 56 -83 119 0 52 25 92 69 110 33 14 104 11 135
-5z m-6550 -150 l0 -105 -230 0 -231 0 3 -107 3 -108 208 -3 207 -2 0 -100 0
-100 -210 0 -210 0 0 -190 0 -190 -125 0 -125 0 0 505 0 505 355 0 355 0 0
-105z m4253 73 c130 -274 249 -510 254 -504 4 3 64 124 134 269 l126 262 117
3 116 3 0 -506 0 -505 -120 0 -120 0 -2 261 -3 261 -77 -149 -77 -148 -98 0
-98 0 -77 150 -77 150 -1 -262 0 -263 -120 0 -120 0 0 505 0 505 114 0 114 0
15 -32z m1897 -124 l0 -105 68 2 67 3 3 -92 3 -92 -71 0 -70 0 0 -173 c0 -121
4 -177 12 -185 7 -7 36 -12 65 -12 l53 0 0 -100 0 -100 -97 0 c-114 0 -161 11
-203 47 -61 51 -65 67 -70 303 l-5 215 -47 3 -48 3 0 92 0 92 47 0 48 0 3 103
3 102 119 0 120 0 0 -106z m-5109 -116 c65 -30 113 -76 142 -138 21 -42 22
-63 25 -322 l3 -278 -115 0 -116 0 0 30 0 29 -36 -24 c-50 -34 -106 -48 -194
-48 -92 0 -164 28 -214 83 -45 50 -60 99 -54 175 8 95 51 148 148 186 76 29
234 24 298 -9 l42 -22 0 45 c0 55 -21 110 -48 124 -44 23 -162 2 -162 -29 0
-6 -47 -10 -114 -10 l-115 0 15 43 c28 83 102 150 200 181 76 25 225 16 295
-16z m781 20 c22 -6 59 -29 84 -51 l44 -39 41 36 c51 43 115 66 189 66 89 0
151 -23 198 -74 66 -72 72 -107 72 -423 l0 -273 -120 0 -120 0 0 234 c0 249
-5 284 -47 311 -37 25 -107 15 -142 -19 l-26 -26 -3 -250 -4 -250 -118 0 -119
0 -3 254 c-3 232 -5 256 -22 275 -38 41 -118 39 -162 -4 l-24 -24 0 -251 0
-250 -125 0 -125 0 0 375 0 375 120 0 120 0 0 -37 0 -37 16 23 c41 59 179 88
276 59z m1164 -5 c155 -52 224 -163 224 -359 l0 -94 -236 0 -237 0 6 -37 c17
-105 139 -145 221 -72 30 26 39 28 134 31 115 3 117 2 81 -67 -67 -127 -211
-189 -379 -164 -129 19 -209 75 -259 179 -23 49 -26 70 -29 182 -4 145 8 205
58 279 58 88 161 137 291 138 46 1 95 -6 125 -16z m2596 -2 c91 -28 183 -122
210 -214 7 -24 12 -98 12 -167 0 -119 -1 -129 -30 -190 -53 -111 -130 -167
-264 -190 -180 -30 -355 55 -412 200 -18 46 -22 76 -22 180 0 72 5 143 12 167
17 58 69 131 119 166 71 51 135 67 243 63 52 -2 112 -9 132 -15z m1569 5 c174
-53 249 -167 249 -381 0 -138 -26 -217 -95 -288 -50 -51 -121 -85 -205 -97
-174 -25 -331 43 -396 171 -49 98 -55 291 -13 406 22 58 87 131 140 159 84 43
231 57 320 30z m889 -17 c55 -30 104 -100 119 -169 6 -29 11 -161 11 -310 l0
-260 -120 0 -120 0 0 218 c0 119 -5 235 -10 256 -14 60 -40 81 -105 81 -46 0
-59 -4 -82 -28 l-28 -27 -3 -250 -3 -250 -120 0 -119 0 0 375 0 375 115 0 115
0 0 -35 c0 -39 9 -45 27 -16 6 10 36 31 65 46 47 24 62 26 133 23 62 -3 91
-10 125 -29z m-7540 -98 l0 -118 -60 -6 c-70 -6 -102 -24 -127 -70 -15 -27
-18 -66 -21 -239 l-4 -208 -119 0 -119 0 0 375 0 375 115 0 115 0 0 -57 c1
-57 1 -57 14 -28 25 56 91 94 169 95 l37 0 0 -119z m2998 110 c8 -1 12 -18 12
-48 l0 -48 19 29 c28 42 69 64 134 72 l57 7 0 -122 0 -121 -40 0 c-67 0 -116
-26 -140 -74 -18 -38 -20 -61 -20 -244 l0 -202 -120 0 -120 0 0 373 c0 206 2
376 4 378 3 3 150 3 214 0z m3102 -377 l0 -374 -120 0 -120 0 0 373 c0 206 2
376 4 378 2 2 56 3 120 1 l116 -3 0 -375z"/>
<path d="M7720 2612 c-32 -15 -35 -22 -38 -64 -3 -41 0 -49 23 -64 67 -44 201
-22 225 36 34 81 -107 144 -210 92z"/>
<path d="M9769 2905 c-29 -16 -46 -48 -55 -105 l-7 -40 128 0 128 0 -7 40 c-9
58 -26 90 -57 106 -35 18 -96 17 -130 -1z"/>
<path d="M12347 2888 c-49 -18 -67 -71 -67 -195 0 -154 28 -195 132 -195 99 1
128 48 128 205 0 92 -3 108 -23 138 -37 56 -99 73 -170 47z"/>
<path d="M13941 2887 c-53 -27 -66 -60 -69 -176 -3 -94 -1 -114 17 -149 26
-50 48 -63 110 -64 59 0 86 13 111 55 17 27 20 51 20 144 0 95 -3 117 -21 147
-30 51 -111 72 -168 43z"/>
</g>
</svg>
